#!OML:ASF H:\Punching\Project 1\Capture day 1\Session 1\female.ASF
:FULLY-SPECIFIED
:DEGREES
2077
root 1.34114 15.2445 3.86853 -2.76576 -1.31772 5.40652
lowerback 2.58913 -0.866097 3.12649
upperback -2.87282 -1.2905 -6.62986
thorax -4.68953 -0.888338 -8.69596
lowerneck -7.23519 8.97276 11.9082
upperneck 39.3063 15.2647 -9.99309
head 17.5175 6.95301 -3.97639
rclavicle -1.49089e-014 2.14687e-014
rhumerus 17.5179 34.4137 -69.0439
rradius 124.139
rwrist -13.9175
rhand -31.6824 10.7822
rfingers 7.12502
rthumb -4.9421 -19.1401
lclavicle -1.49089e-014 2.14687e-014
lhumerus -1.4661 -15.6376 67.7625
lradius 140.735
lwrist 1.42312
lhand -26.562 3.97098
lfingers 7.12502
lthumb 0.00296477 33.9507
rfemur -18.3418 2.42027 22.024
rtibia 43.9127
rfoot -19.4345 -16.4607
rtoes 10.568
lfemur -79.1353 14.218 -22.7175
ltibia 135.767
lfoot -148.973 169.197
ltoes -12.4794
2078
root 1.3499 15.2519 3.82874 -1.79822 -0.738508 5.44381
lowerback 2.26623 -0.887211 2.98389
upperback -3.1241 -1.32992 -6.53222
thorax -4.76959 -0.909978 -8.50584
lowerneck -7.52064 8.80885 11.6679
upperneck 39.1455 15.0114 -9.99305
head 17.42 6.80699 -3.96602
rclavicle 7.65321e-015 -1.03368e-014
rhumerus 17.5816 34.0525 -68.7276
rradius 124.352
rwrist -14.2128
rhand -31.6884 10.7231
rfingers 7.12502
rthumb -4.94781 -19.1992
lclavicle 7.65321e-015 -1.03368e-014
lhumerus -1.1642 -15.956 67.7976
lradius 140.627
lwrist 1.2736
lhand -26.5143 3.95283
lfingers 7.12502
lthumb 0.0490127 33.9326
rfemur -19.6563 2.17099 21.8393
rtibia 44.2078
rfoot -19.405 -16.6457
rtoes 10.6444
lfemur -76.7612 13.289 -21.9276
ltibia 134.507
lfoot -149.465 169.284
ltoes -12.2965
2079
root 1.35926 15.258 3.79032 -0.862197 -0.207628 5.50491
lowerback 1.95503 -0.898553 2.8334
upperback -3.37173 -1.35589 -6.4392
thorax -4.84976 -0.924062 -8.31773
lowerneck -7.79373 8.64534 11.4282
upperneck 38.9765 14.7645 -10.0033
head 17.3191 6.66303 -3.95937
rclavicle 4.47266e-015 3.18055e-014
rhumerus 17.6358 33.6866 -68.4184
rradius 124.57
rwrist -14.4863
rhand -31.688 10.6447
rfingers 7.12502
rthumb -4.9475 -19.2775
lclavicle 4.47266e-015 3.18055e-014
lhumerus -0.872777 -16.2494 67.8257
lradius 140.525
lwrist 1.10085
lhand -26.4775 3.92146
lfingers 7.12502
lthumb 0.0845246 33.9012
rfemur -20.946 1.94017 21.6363
rtibia 44.52
rfoot -19.382 -16.8032
rtoes 10.696
lfemur -74.3206 12.319 -21.1198
ltibia 133.036
lfoot -150.102 169.532
ltoes -12.0496
2080
root 1.36933 15.2623 3.75324 0.0405164 0.276429 5.58998
lowerback 1.66114 -0.902963 2.67048
upperback -3.61937 -1.37256 -6.3495
thorax -4.93781 -0.932768 -8.12717
lowerneck -8.04993 8.48116 11.183
upperneck 38.802 14.5222 -10.0184
head 17.2137 6.52024 -3.95347
rclavicle 2.18663e-014 5.80451e-014
rhumerus 17.68 33.3249 -68.1177
rradius 124.778
rwrist -14.6941
rhand -31.6884 10.5513
rfingers 7.12502
rthumb -4.9479 -19.3709
lclavicle 2.18663e-014 5.80451e-014
lhumerus -0.611525 -16.5155 67.8479
lradius 140.441
lwrist 0.94071
lhand -26.4617 3.87822
lfingers 7.12502
lthumb 0.0997988 33.8579
rfemur -22.214 1.72462 21.4126
rtibia 44.8593
rfoot -19.3683 -16.9331
rtoes 10.7209
lfemur -71.8229 11.3088 -20.3135
ltibia 131.371
lfoot -150.871 169.986
ltoes -11.7169
2081
root 1.38036 15.2646 3.71769 0.906817 0.716367 5.69655
lowerback 1.37866 -0.902657 2.49713
upperback -3.86165 -1.38254 -6.26263
thorax -5.02529 -0.937041 -7.93451
lowerneck -8.28694 8.31895 10.9393
upperneck 38.62 14.289 -10.0438
head 17.1042 6.38096 -3.95113
rclavicle -5.96354e-015 8.74653e-015
rhumerus 17.7183 32.9642 -67.8259
rradius 124.958
rwrist -14.8121
rhand -31.6991 10.4759
rfingers 7.12502
rthumb -4.95816 -19.446
lclavicle -5.96354e-015 8.74653e-015
lhumerus -0.370016 -16.7531 67.8613
lradius 140.378
lwrist 0.825579
lhand -26.4572 3.8336
lfingers 7.12502
lthumb 0.104185 33.8133
rfemur -23.4584 1.51737 21.1688
rtibia 45.2329
rfoot -19.3673 -17.0319
rtoes 10.7065
lfemur -69.2685 10.2664 -19.5284
ltibia 129.53
lfoot -151.78 170.65
ltoes -11.3852
2082
root 1.39259 15.2642 3.68359 1.73564 1.1133 5.81716
lowerback 1.10572 -0.899527 2.32064
upperback -4.09633 -1.38793 -6.17737
thorax -5.1094 -0.93807 -7.74247
lowerneck -8.51771 8.16167 10.6915
upperneck 38.4417 14.067 -10.069
head 16.9987 6.24576 -3.94596
rclavicle 6.95746e-016 -4.77083e-015
rhumerus 17.7716 32.6085 -67.5326
rradius 125.11
rwrist -14.845
rhand -31.7161 10.4188
rfingers 7.12502
rthumb -4.97464 -19.5028
lclavicle 6.95746e-016 -4.77083e-015
lhumerus -0.135232 -16.9633 67.8678
lradius 140.324
lwrist 0.772563
lhand -26.453 3.81228
lfingers 7.12502
lthumb 0.108239 33.792
rfemur -24.6801 1.31926 20.9121
rtibia 45.6449
rfoot -19.3896 -17.1014
rtoes 10.6816
lfemur -66.6613 9.2067 -18.7688
ltibia 127.532
lfoot -152.835 171.513
ltoes -11.0785
2083
root 1.40625 15.2612 3.65099 2.5234 1.47237 5.94891
lowerback 0.848067 -0.8961 2.14378
upperback -4.32588 -1.39227 -6.09396
thorax -5.19677 -0.938002 -7.55268
lowerneck -8.73992 8.01024 10.4458
upperneck 38.2761 13.8566 -10.0913
head 16.9018 6.11608 -3.93828
rclavicle 3.97569e-016 5.56597e-015
rhumerus 17.8321 32.26 -67.2436
rradius 125.232
rwrist -14.8093
rhand -31.7562 10.4273
rfingers 7.12502
rthumb -5.01332 -19.4934
lclavicle 3.97569e-016 5.56597e-015
lhumerus 0.08298 -17.153 67.8666
lradius 140.282
lwrist 0.785136
lhand -26.4632 3.8016
lfingers 7.12502
lthumb 0.0983462 33.7813
rfemur -25.8729 1.12501 20.6447
rtibia 46.0943
rfoot -19.4343 -17.1443
rtoes 10.6406
lfemur -63.9955 8.13116 -18.0417
ltibia 125.387
lfoot -154.045 172.545
ltoes -10.8014
2084
root 1.42152 15.2556 3.61975 3.26807 1.79622 6.0838
lowerback 0.61024 -0.894365 1.97411
upperback -4.55143 -1.3981 -6.01136
thorax -5.29182 -0.938578 -7.36821
lowerneck -8.95298 7.86678 10.2103
upperneck 38.1254 13.6603 -10.1131
head 16.816 5.99381 -3.9303
rclavicle -1.75924e-014 7.95139e-016
rhumerus 17.9056 31.924 -66.9555
rradius 125.336
rwrist -14.7432
rhand -31.8126 10.4431
rfingers 7.12502
rthumb -5.06781 -19.4763
lclavicle -1.75924e-014 7.95139e-016
lhumerus 0.279408 -17.3172 67.8519
lradius 140.259
lwrist 0.857807
lhand -26.4534 3.85576
lfingers 7.12502
lthumb 0.107854 33.8355
rfemur -27.0328 0.936379 20.3746
rtibia 46.5774
rfoot -19.4991 -17.1652
rtoes 10.5837
lfemur -61.2748 7.0498 -17.3466
ltibia 123.108
lfoot -155.417 173.685
ltoes -10.5999
2085
root 1.43839 15.2476 3.58973 3.9651 2.08673 6.21645
lowerback 0.395035 -0.896131 1.81258
upperback -4.77117 -1.40777 -5.92613
thorax -5.39446 -0.940883 -7.18566
lowerneck -9.15734 7.73392 9.98467
upperneck 37.9929 13.4817 -10.1323
head 16.7431 5.88061 -3.92047
rclavicle 7.95139e-015 -3.81667e-014
rhumerus 17.9935 31.6015 -66.6679
rradius 125.427
rwrist -14.6755
rhand -31.8712 10.4383
rfingers 7.12502
rthumb -5.1244 -19.4797
lclavicle 7.95139e-015 -3.81667e-014
lhumerus 0.447506 -17.4571 67.8254
lradius 140.253
lwrist 0.958185
lhand -26.4405 3.93842
lfingers 7.12502
lthumb 0.120319 33.9181
rfemur -28.1511 0.758476 20.1077
rtibia 47.0872
rfoot -19.5762 -17.1725
rtoes 10.506
lfemur -58.5016 5.97112 -16.6852
ltibia 120.696
lfoot -156.93 174.875
ltoes -10.4817
2086
root 1.45689 15.2376 3.56087 4.61465 2.35024 6.34997
lowerback 0.200356 -0.903306 1.65718
upperback -4.98271 -1.42404 -5.84157
thorax -5.5014 -0.946202 -7.00724
lowerneck -9.35367 7.61266 9.7763
upperneck 37.8754 13.3206 -10.1515
head 16.6821 5.77717 -3.91111
rclavicle -8.84592e-015 3.18055e-015
rhumerus 18.0917 31.291 -66.3874
rradius 125.511
rwrist -14.6198
rhand -31.9265 10.4141
rfingers 7.12502
rthumb -5.17774 -19.5027
lclavicle -8.84592e-015 3.18055e-015
lhumerus 0.588474 -17.5727 67.7825
lradius 140.262
lwrist 1.06026
lhand -26.4275 4.03762
lfingers 7.12502
lthumb 0.132834 34.0173
rfemur -29.2229 0.591321 19.8388
rtibia 47.6173
rfoot -19.668 -17.1705
rtoes 10.4109
lfemur -55.6758 4.8934 -16.0658
ltibia 118.152
lfoot -158.549 176.073
ltoes -10.4175
